<svg width="500" height="146" xmlns="http://www.w3.org/2000/svg"><defs><linearGradient x1="50%" y1=".971%" x2="50%" y2="97.879%" id="linearGradient-1"><stop stop-color="#00F0DD" offset="0%"/><stop stop-color="#2EC4E4" offset="17%"/><stop stop-color="#787EF0" offset="47%"/><stop stop-color="#AE4BF8" offset="72%"/><stop stop-color="#CF2BFD" offset="90%"/><stop stop-color="#DC1FFF" offset="100%"/></linearGradient></defs><g id="Page-1" stroke="none" stroke-width="1" fill="none" fill-rule="evenodd"><g id="grape_white_logo" fill-rule="nonzero"><path d="M105.632 53.476c0-3.412-.85-6.765-2.463-9.72-1.612-2.956-3.931-5.41-6.723-7.117a17.601 17.601 0 0 0-9.184-2.606c-3.224-.001-6.392.896-9.185 2.6-.594.362-1.169.76-1.72 1.191-2.611-2.042-5.688-3.315-8.915-3.69a17.469 17.469 0 0 0-9.46 1.558c.166-1.357.25-2.723.25-4.092a33.662 33.662 0 0 0-.918-7.779 42.813 42.813 0 0 0 14.119 2.334c14.913 0 27.459-7.297 31.09-17.185a3.167 3.167 0 0 0-.076-2.32 3.003 3.003 0 0 0-.658-.957 2.814 2.814 0 0 0-.957-.613 2.686 2.686 0 0 0-2.125.085 2.929 2.929 0 0 0-1.47 1.627c-1.322 3.61-4.291 6.223-6.254 7.631a29.22 29.22 0 0 1-8.599 4.147 37.637 37.637 0 0 1-10.951 1.556 37.59 37.59 0 0 1-10.944-1.556 30.89 30.89 0 0 1-6.181-2.606c-2.232-4.15-5.32-7.713-9.033-10.425a28.905 28.905 0 0 0-5.953-3.353 28.36 28.36 0 0 0-22.543.305C9.591 5.704 3.875 11.765.853 19.38a3.158 3.158 0 0 0 .033 2.354c.155.37.38.703.659.979.28.276.61.489.969.627.685.26 1.439.232 2.105-.08a2.93 2.93 0 0 0 1.474-1.593v-.047a25.72 25.72 0 0 1 5.304-8.264 24.117 24.117 0 0 1 7.888-5.487 23.022 23.022 0 0 1 9.272-1.873c3.177.027 6.318.715 9.243 2.026a24.45 24.45 0 0 1 2.77 1.462c4.116 2.538 7.439 6.298 9.556 10.814.206.443.397.887.58 1.346a27.18 27.18 0 0 1 1.051 16.702c-3.16-2.699-7.075-4.214-11.135-4.308-4.06-.094-8.035 1.237-11.304 3.787-2.736-2.147-5.982-3.447-9.376-3.755a17.509 17.509 0 0 0-9.842 2.013c-3.042 1.624-5.597 4.11-7.38 7.182A20.305 20.305 0 0 0 0 53.476v.778a20.281 20.281 0 0 0 2.64 9.284c1.607 2.809 3.86 5.142 6.547 6.78.375.226.735.444 1.154.654a20.482 20.482 0 0 0-1.146 7.606c.1 2.59.69 5.134 1.733 7.48a19.406 19.406 0 0 0 4.34 6.182 18.185 18.185 0 0 0 6.267 3.914 20.528 20.528 0 0 0-.769 8.005 20.247 20.247 0 0 0 2.358 7.649 19.118 19.118 0 0 0 5.081 5.984 17.897 17.897 0 0 0 6.935 3.295 20.55 20.55 0 0 0-.384 8.894 20.025 20.025 0 0 0 3.4 8.142 18.65 18.65 0 0 0 6.472 5.686 17.546 17.546 0 0 0 8.188 2.037c2.841 0 5.644-.697 8.187-2.037a18.653 18.653 0 0 0 6.472-5.686 20.02 20.02 0 0 0 3.4-8.142c.524-2.956.393-6-.383-8.894a17.896 17.896 0 0 0 6.934-3.295 19.118 19.118 0 0 0 5.082-5.984 20.25 20.25 0 0 0 2.357-7.65 20.53 20.53 0 0 0-.768-8.004 18.184 18.184 0 0 0 6.267-3.914 19.398 19.398 0 0 0 4.34-6.182 20.375 20.375 0 0 0 1.733-7.48c.1-2.59-.29-5.177-1.147-7.606 3.101-1.595 5.716-4.082 7.544-7.176a20.308 20.308 0 0 0 2.798-10.32Zm-49.325-9.335.162-.18c2.051-2.167 4.741-3.527 7.623-3.854 2.883-.326 5.784.4 8.223 2.058a20.113 20.113 0 0 0-3.268 8.76 20.51 20.51 0 0 0 1.004 9.358 18.217 18.217 0 0 0-4.601 3.376c-2.162-2.17-4.79-3.75-7.658-4.605a17.277 17.277 0 0 0-4.183-.7 14.173 14.173 0 0 1-.793-3.516 14.04 14.04 0 0 1 0-2.723 13.804 13.804 0 0 1 2.308-6.48v-.055c.361-.506.757-.985 1.183-1.431v-.008Zm4.27 39.558c-2.99 1.104-5.663 3.004-7.761 5.516-3.02-3.634-7.215-5.943-11.76-6.473a14.266 14.266 0 0 1-.037-9.848 13.526 13.526 0 0 1 2.66-4.435l.163-.17c1.774-1.908 4.051-3.204 6.534-3.72a12.087 12.087 0 0 1 4.887 0c2.476.509 4.75 1.794 6.527 3.688.059.054.11.117.161.171a19.96 19.96 0 0 0-1.47 3.742 20.536 20.536 0 0 0 .103 11.514l-.007.015ZM29.282 46.591a13.575 13.575 0 0 1 1.925-2.621 13.827 13.827 0 0 1 2.11-1.805c2.23-1.517 4.853-2.257 7.5-2.118 2.648.14 5.189 1.152 7.265 2.896.378.318.739.659 1.08 1.019l.163.179c-2.023 3.918-2.71 8.453-1.948 12.844.12.695.274 1.383.463 2.061a17.965 17.965 0 0 0-7.005 3.968c-.22.202-.433.412-.646.622l-.118-.117a18.38 18.38 0 0 0-5.483-3.734 17.578 17.578 0 0 0-4.454-1.26 16.848 16.848 0 0 0-1.786-.179 14.24 14.24 0 0 1-.852-4.878c-.007-2.421.61-4.799 1.786-6.877ZM13.23 65.635l-.066.086a12.094 12.094 0 0 1-1.375-.778 12.871 12.871 0 0 1-2.396-1.93l-.206-.225c-2.268-2.504-3.528-5.843-3.513-9.312 0-.378.015-.76.044-1.143.239-3.052 1.464-5.923 3.47-8.13l.205-.233c2.05-2.169 4.74-3.53 7.623-3.859 2.882-.328 5.784.397 8.223 2.054a20.08 20.08 0 0 0-3.177 8.119c-.46 2.927-.28 5.927.524 8.77a17.8 17.8 0 0 0-4.469 2.038 18.922 18.922 0 0 0-4.887 4.543Zm10.922 25.09a12.56 12.56 0 0 1-5.635-3.516 13.643 13.643 0 0 1-3.231-6.02c-.562-2.27-.55-4.657.031-6.922a13.624 13.624 0 0 1 3.285-5.986c.243-.257.493-.498.735-.732a9.21 9.21 0 0 1 .963-.778 12.148 12.148 0 0 1 4.814-2.201l.522-.102a13.108 13.108 0 0 1 1.918-.147 12.056 12.056 0 0 1 5.234 1.182 13.288 13.288 0 0 1 3.711 2.754l.154.171a20.45 20.45 0 0 0-1.47 3.742 20.572 20.572 0 0 0-.734 5.586 20.235 20.235 0 0 0 .69 5.297c-4.44 1.028-8.362 3.761-11.01 7.671h.023ZM37.63 115.44c-3.105-.365-5.975-1.928-8.059-4.392-2.084-2.464-3.236-5.655-3.236-8.962 0-3.307 1.152-6.498 3.236-8.962 2.084-2.464 4.954-4.027 8.059-4.391a11.933 11.933 0 0 1 4.836.412 12.42 12.42 0 0 1 5.55 3.43c.596.631 1.132 1.322 1.601 2.062a20.607 20.607 0 0 0-.734 2.14 20.68 20.68 0 0 0 0 10.603c-4.586 1.066-8.613 3.95-11.253 8.06Zm24.159 20.452c-2.066 2.188-4.781 3.555-7.689 3.87-2.907.314-5.828-.443-8.269-2.144-2.441-1.7-4.253-4.24-5.13-7.191a14.174 14.174 0 0 1 .317-9.005 13.313 13.313 0 0 1 2.823-4.528 12.594 12.594 0 0 1 5.335-3.362 12.04 12.04 0 0 1 6.204-.287c2.058.45 3.98 1.43 5.592 2.857a13.455 13.455 0 0 1 3.646 5.32c.59 1.583.892 3.27.89 4.97a13.996 13.996 0 0 1-.959 5.146 13.393 13.393 0 0 1-2.76 4.354Zm16.287-28.06a13.656 13.656 0 0 1-2.506 3.757c-2.033 2.161-4.705 3.52-7.57 3.85-2.644-4.124-6.682-7.018-11.283-8.082a15.815 15.815 0 0 0-1.925-.327 14.356 14.356 0 0 1 0-9.95c.325-.866.737-1.692 1.227-2.466a13.534 13.534 0 0 1 1.595-2.038 12.5 12.5 0 0 1 5.55-3.439A11.926 11.926 0 0 1 68 88.725c2.871.336 5.545 1.71 7.57 3.89a13.497 13.497 0 0 1 2.507 3.757c.132.288.25.584.36.88.62 1.702.907 3.52.845 5.343a14.176 14.176 0 0 1-1.205 5.267v-.03Zm8.974-20.554a12.44 12.44 0 0 1-5.549 3.446c-1.697-2.506-3.935-4.547-6.527-5.953a17.48 17.48 0 0 0-8.378-2.13h-.36a14.307 14.307 0 0 1 0-9.747 13.384 13.384 0 0 1 2.704-4.435l.162-.17a12.542 12.542 0 0 1 4.113-2.925 11.96 11.96 0 0 1 4.861-1.012c.642.002 1.283.051 1.919.148l.521.1a12.068 12.068 0 0 1 4.822 2.164c.614.461 1.188.982 1.712 1.555a13.503 13.503 0 0 1 2.753 4.358c.638 1.63.967 3.377.967 5.141 0 1.764-.329 3.511-.967 5.141a13.503 13.503 0 0 1-2.753 4.358v-.04Zm9.188-24.264a12.516 12.516 0 0 1-3.75 2.746 11.021 11.021 0 0 0-.631-.778 18.381 18.381 0 0 0-6.21-4.9 17.416 17.416 0 0 0-7.57-1.736h-.795c-.6.025-1.198.082-1.793.171a14.157 14.157 0 0 1-.919-5.049 13.914 13.914 0 0 1 1.786-6.884 13.036 13.036 0 0 1 1.72-2.388l.206-.234a13.831 13.831 0 0 1 2.11-1.805 12.305 12.305 0 0 1 5.601-2.063 12.114 12.114 0 0 1 5.879.842 12.741 12.741 0 0 1 4.41 3.034 13.511 13.511 0 0 1 2.753 4.36c.638 1.63.967 3.377.967 5.142 0 1.765-.329 3.513-.967 5.143a13.517 13.517 0 0 1-2.753 4.36l-.044.039Z" id="Shape" fill="url('#linearGradient-1')"/><path d="M105.632 53.476c0-3.412-.85-6.765-2.463-9.72-1.612-2.956-3.931-5.41-6.723-7.117a17.601 17.601 0 0 0-9.184-2.606c-3.224-.001-6.392.896-9.185 2.6-.594.362-1.169.76-1.72 1.191-2.611-2.042-5.688-3.315-8.915-3.69a17.469 17.469 0 0 0-9.46 1.558c.166-1.357.25-2.723.25-4.092a33.662 33.662 0 0 0-.918-7.779 42.813 42.813 0 0 0 14.119 2.334c14.913 0 27.459-7.297 31.09-17.185a3.167 3.167 0 0 0-.076-2.32 3.003 3.003 0 0 0-.658-.957 2.814 2.814 0 0 0-.957-.613 2.686 2.686 0 0 0-2.125.085 2.929 2.929 0 0 0-1.47 1.627c-1.322 3.61-4.291 6.223-6.254 7.631a29.22 29.22 0 0 1-8.599 4.147 37.637 37.637 0 0 1-10.951 1.556 37.59 37.59 0 0 1-10.944-1.556 30.89 30.89 0 0 1-6.181-2.606c-2.232-4.15-5.32-7.713-9.033-10.425a28.905 28.905 0 0 0-5.953-3.353 28.36 28.36 0 0 0-22.543.305C9.591 5.704 3.875 11.765.853 19.38a3.158 3.158 0 0 0 .033 2.354c.155.37.38.703.659.979.28.276.61.489.969.627.685.26 1.439.232 2.105-.08a2.93 2.93 0 0 0 1.474-1.593v-.047a25.72 25.72 0 0 1 5.304-8.264 24.117 24.117 0 0 1 7.888-5.487 23.022 23.022 0 0 1 9.272-1.873c3.177.027 6.318.715 9.243 2.026a24.45 24.45 0 0 1 2.77 1.462c4.116 2.538 7.439 6.298 9.556 10.814.206.443.397.887.58 1.346a27.18 27.18 0 0 1 1.051 16.702c-3.16-2.699-7.075-4.214-11.135-4.308-4.06-.094-8.035 1.237-11.304 3.787-2.736-2.147-5.982-3.447-9.376-3.755a17.509 17.509 0 0 0-9.842 2.013c-3.042 1.624-5.597 4.11-7.38 7.182A20.305 20.305 0 0 0 0 53.476v.778a20.281 20.281 0 0 0 2.64 9.284c1.607 2.809 3.86 5.142 6.547 6.78.375.226.735.444 1.154.654a20.482 20.482 0 0 0-1.146 7.606c.1 2.59.69 5.134 1.733 7.48a19.406 19.406 0 0 0 4.34 6.182 18.185 18.185 0 0 0 6.267 3.914 20.528 20.528 0 0 0-.769 8.005 20.247 20.247 0 0 0 2.358 7.649 19.118 19.118 0 0 0 5.081 5.984 17.897 17.897 0 0 0 6.935 3.295 20.55 20.55 0 0 0-.384 8.894 20.025 20.025 0 0 0 3.4 8.142 18.65 18.65 0 0 0 6.472 5.686 17.546 17.546 0 0 0 8.188 2.037c2.841 0 5.644-.697 8.187-2.037a18.653 18.653 0 0 0 6.472-5.686 20.02 20.02 0 0 0 3.4-8.142c.524-2.956.393-6-.383-8.894a17.896 17.896 0 0 0 6.934-3.295 19.118 19.118 0 0 0 5.082-5.984 20.25 20.25 0 0 0 2.357-7.65 20.53 20.53 0 0 0-.768-8.004 18.184 18.184 0 0 0 6.267-3.914 19.398 19.398 0 0 0 4.34-6.182 20.375 20.375 0 0 0 1.733-7.48c.1-2.59-.29-5.177-1.147-7.606 3.101-1.595 5.716-4.082 7.544-7.176a20.308 20.308 0 0 0 2.798-10.32Zm-49.325-9.335.162-.18c2.051-2.167 4.741-3.527 7.623-3.854 2.883-.326 5.784.4 8.223 2.058a20.113 20.113 0 0 0-3.268 8.76 20.51 20.51 0 0 0 1.004 9.358 18.217 18.217 0 0 0-4.601 3.376c-2.162-2.17-4.79-3.75-7.658-4.605a17.277 17.277 0 0 0-4.183-.7 14.173 14.173 0 0 1-.793-3.516 14.04 14.04 0 0 1 0-2.723 13.804 13.804 0 0 1 2.308-6.48v-.055c.361-.506.757-.985 1.183-1.431v-.008Zm4.27 39.558c-2.99 1.104-5.663 3.004-7.761 5.516-3.02-3.634-7.215-5.943-11.76-6.473a14.266 14.266 0 0 1-.037-9.848 13.526 13.526 0 0 1 2.66-4.435l.163-.17c1.774-1.908 4.051-3.204 6.534-3.72a12.087 12.087 0 0 1 4.887 0c2.476.509 4.75 1.794 6.527 3.688.059.054.11.117.161.171a19.96 19.96 0 0 0-1.47 3.742 20.536 20.536 0 0 0 .103 11.514l-.007.015ZM29.282 46.591a13.575 13.575 0 0 1 1.925-2.621 13.827 13.827 0 0 1 2.11-1.805c2.23-1.517 4.853-2.257 7.5-2.118 2.648.14 5.189 1.152 7.265 2.896.378.318.739.659 1.08 1.019l.163.179c-2.023 3.918-2.71 8.453-1.948 12.844.12.695.274 1.383.463 2.061a17.965 17.965 0 0 0-7.005 3.968c-.22.202-.433.412-.646.622l-.118-.117a18.38 18.38 0 0 0-5.483-3.734 17.578 17.578 0 0 0-4.454-1.26 16.848 16.848 0 0 0-1.786-.179 14.24 14.24 0 0 1-.852-4.878c-.007-2.421.61-4.799 1.786-6.877ZM13.23 65.635l-.066.086a12.094 12.094 0 0 1-1.375-.778 12.871 12.871 0 0 1-2.396-1.93l-.206-.225c-2.268-2.504-3.528-5.843-3.513-9.312 0-.378.015-.76.044-1.143.239-3.052 1.464-5.923 3.47-8.13l.205-.233c2.05-2.169 4.74-3.53 7.623-3.859 2.882-.328 5.784.397 8.223 2.054a20.08 20.08 0 0 0-3.177 8.119c-.46 2.927-.28 5.927.524 8.77a17.8 17.8 0 0 0-4.469 2.038 18.922 18.922 0 0 0-4.887 4.543Zm10.922 25.09a12.56 12.56 0 0 1-5.635-3.516 13.643 13.643 0 0 1-3.231-6.02c-.562-2.27-.55-4.657.031-6.922a13.624 13.624 0 0 1 3.285-5.986c.243-.257.493-.498.735-.732a9.21 9.21 0 0 1 .963-.778 12.148 12.148 0 0 1 4.814-2.201l.522-.102a13.108 13.108 0 0 1 1.918-.147 12.056 12.056 0 0 1 5.234 1.182 13.288 13.288 0 0 1 3.711 2.754l.154.171a20.45 20.45 0 0 0-1.47 3.742 20.572 20.572 0 0 0-.734 5.586 20.235 20.235 0 0 0 .69 5.297c-4.44 1.028-8.362 3.761-11.01 7.671h.023ZM37.63 115.44c-3.105-.365-5.975-1.928-8.059-4.392-2.084-2.464-3.236-5.655-3.236-8.962 0-3.307 1.152-6.498 3.236-8.962 2.084-2.464 4.954-4.027 8.059-4.391a11.933 11.933 0 0 1 4.836.412 12.42 12.42 0 0 1 5.55 3.43c.596.631 1.132 1.322 1.601 2.062a20.607 20.607 0 0 0-.734 2.14 20.68 20.68 0 0 0 0 10.603c-4.586 1.066-8.613 3.95-11.253 8.06Zm24.159 20.452c-2.066 2.188-4.781 3.555-7.689 3.87-2.907.314-5.828-.443-8.269-2.144-2.441-1.7-4.253-4.24-5.13-7.191a14.174 14.174 0 0 1 .317-9.005 13.313 13.313 0 0 1 2.823-4.528 12.594 12.594 0 0 1 5.335-3.362 12.04 12.04 0 0 1 6.204-.287c2.058.45 3.98 1.43 5.592 2.857a13.455 13.455 0 0 1 3.646 5.32c.59 1.583.892 3.27.89 4.97a13.996 13.996 0 0 1-.959 5.146 13.393 13.393 0 0 1-2.76 4.354Zm16.287-28.06a13.656 13.656 0 0 1-2.506 3.757c-2.033 2.161-4.705 3.52-7.57 3.85-2.644-4.124-6.682-7.018-11.283-8.082a15.815 15.815 0 0 0-1.925-.327 14.356 14.356 0 0 1 0-9.95c.325-.866.737-1.692 1.227-2.466a13.534 13.534 0 0 1 1.595-2.038 12.5 12.5 0 0 1 5.55-3.439A11.926 11.926 0 0 1 68 88.725c2.871.336 5.545 1.71 7.57 3.89a13.497 13.497 0 0 1 2.507 3.757c.132.288.25.584.36.88.62 1.702.907 3.52.845 5.343a14.176 14.176 0 0 1-1.205 5.267v-.03Zm8.974-20.554a12.44 12.44 0 0 1-5.549 3.446c-1.697-2.506-3.935-4.547-6.527-5.953a17.48 17.48 0 0 0-8.378-2.13h-.36a14.307 14.307 0 0 1 0-9.747 13.384 13.384 0 0 1 2.704-4.435l.162-.17a12.542 12.542 0 0 1 4.113-2.925 11.96 11.96 0 0 1 4.861-1.012c.642.002 1.283.051 1.919.148l.521.1a12.068 12.068 0 0 1 4.822 2.164c.614.461 1.188.982 1.712 1.555a13.503 13.503 0 0 1 2.753 4.358c.638 1.63.967 3.377.967 5.141 0 1.764-.329 3.511-.967 5.141a13.503 13.503 0 0 1-2.753 4.358v-.04Zm9.188-24.264a12.516 12.516 0 0 1-3.75 2.746 11.021 11.021 0 0 0-.631-.778 18.381 18.381 0 0 0-6.21-4.9 17.416 17.416 0 0 0-7.57-1.736h-.795c-.6.025-1.198.082-1.793.171a14.157 14.157 0 0 1-.919-5.049 13.914 13.914 0 0 1 1.786-6.884 13.036 13.036 0 0 1 1.72-2.388l.206-.234a13.831 13.831 0 0 1 2.11-1.805 12.305 12.305 0 0 1 5.601-2.063 12.114 12.114 0 0 1 5.879.842 12.741 12.741 0 0 1 4.41 3.034 13.511 13.511 0 0 1 2.753 4.36c.638 1.63.967 3.377.967 5.142 0 1.765-.329 3.513-.967 5.143a13.517 13.517 0 0 1-2.753 4.36l-.044.039Z" id="Shape" fill="#FFF"/><path d="M190.302 71.712h15.081v30.635a42.362 42.362 0 0 1-13.45 7.119 49.7 49.7 0 0 1-15.39 2.481c-6.955.12-13.828-1.605-19.992-5.017-5.76-3.194-10.576-8.01-13.913-13.918-3.4-6.083-5.144-13.043-5.042-20.11-.101-7.069 1.644-14.03 5.042-20.117 3.365-5.924 8.228-10.733 14.038-13.887 6.231-3.41 13.162-5.133 20.175-5.017a41.958 41.958 0 0 1 17.015 3.345c4.945 2.112 9.346 5.437 12.84 9.7l-10.598 10.332c-2.33-2.72-5.178-4.886-8.357-6.355a23.35 23.35 0 0 0-10.084-2.164 24.087 24.087 0 0 0-12.127 3.019c-3.471 1.953-6.337 4.924-8.254 8.557a26.248 26.248 0 0 0-2.94 12.618 26.005 26.005 0 0 0 2.94 12.51c1.923 3.61 4.765 6.574 8.203 8.557a23.191 23.191 0 0 0 11.972 3.112 25.522 25.522 0 0 0 12.84-3.236V71.712Z" id="Path" fill="#FFF"/><path d="m264.137 112.025-14.244-21.783h-15.707v21.783h-17.08V33.857h31.949c6.541 0 12.218 1.154 17.03 3.462 4.533 2.054 8.401 5.467 11.127 9.817 2.679 4.517 4.037 9.77 3.903 15.1.196 5.271-1.16 10.476-3.88 14.895-2.72 4.42-6.67 7.835-11.305 9.774l16.552 25.12h-18.345Zm-4.322-59.902c-2.675-2.349-6.578-3.521-11.708-3.516h-13.92v27.228h13.92c5.13 0 9.033-1.19 11.708-3.57 2.676-2.381 4.023-5.724 4.043-10.029 0-4.408-1.348-7.779-4.043-10.113ZM341.685 95.245h-34.264l-6.541 16.78h-17.5l32.897-78.168h16.868l33.008 78.168h-17.927l-6.54-16.78Zm-5.372-13.731-11.708-29.912-11.701 29.912h23.409ZM419.257 37.342c4.531 2.055 8.4 5.467 11.125 9.818 2.677 4.51 4.035 9.754 3.903 15.076.114 5.302-1.243 10.521-3.903 15.015-2.705 4.368-6.58 7.786-11.125 9.817-4.813 2.272-10.49 3.408-17.031 3.408h-14.89v21.549h-17.058V33.857h31.948c6.541 0 12.218 1.162 17.03 3.485Zm-6.27 34.852c2.67-2.339 4.006-5.668 4.006-9.988 0-4.32-1.337-7.681-4.007-10.083-2.673-2.349-6.576-3.521-11.708-3.516h-13.941V75.71h13.962c5.118 0 9.014-1.171 11.687-3.516Z" id="Shape" fill="#FFF"/><path id="Path" fill="#FFF" d="M499.906 97.47v14.555h-55.684V33.857H500v14.509h-38.799v16.982h34.264v14.058h-34.264v18.08z"/></g></g></svg>